<svg width="21" height="24" viewBox="0 0 21 24" fill="none" xmlns="http://www.w3.org/2000/svg">
<path d="M6 6.9375V5.0625C6 4.75313 6.25313 4.5 6.5625 4.5H8.4375C8.74687 4.5 9 4.75313 9 5.0625V6.9375C9 7.24687 8.74687 7.5 8.4375 7.5H6.5625C6.25313 7.5 6 7.24687 6 6.9375ZM12.5625 7.5H14.4375C14.7469 7.5 15 7.24687 15 6.9375V5.0625C15 4.75313 14.7469 4.5 14.4375 4.5H12.5625C12.2531 4.5 12 4.75313 12 5.0625V6.9375C12 7.24687 12.2531 7.5 12.5625 7.5ZM6.5625 12H8.4375C8.74687 12 9 11.7469 9 11.4375V9.5625C9 9.25313 8.74687 9 8.4375 9H6.5625C6.25313 9 6 9.25313 6 9.5625V11.4375C6 11.7469 6.25313 12 6.5625 12ZM12.5625 12H14.4375C14.7469 12 15 11.7469 15 11.4375V9.5625C15 9.25313 14.7469 9 14.4375 9H12.5625C12.2531 9 12 9.25313 12 9.5625V11.4375C12 11.7469 12.2531 12 12.5625 12ZM9 15.9375V14.0625C9 13.7531 8.74687 13.5 8.4375 13.5H6.5625C6.25313 13.5 6 13.7531 6 14.0625V15.9375C6 16.2469 6.25313 16.5 6.5625 16.5H8.4375C8.74687 16.5 9 16.2469 9 15.9375ZM12.5625 16.5H14.4375C14.7469 16.5 15 16.2469 15 15.9375V14.0625C15 13.7531 14.7469 13.5 14.4375 13.5H12.5625C12.2531 13.5 12 13.7531 12 14.0625V15.9375C12 16.2469 12.2531 16.5 12.5625 16.5ZM21 22.3125V24H0V22.3125C0 22.0031 0.253125 21.75 0.5625 21.75H1.47656V1.125C1.47656 0.501562 1.97812 0 2.60156 0H18.3984C19.0219 0 19.5234 0.501562 19.5234 1.125V21.75H20.4375C20.7469 21.75 21 22.0031 21 22.3125ZM3.72656 21.7031H9V18.5625C9 18.2531 9.25313 18 9.5625 18H11.4375C11.7469 18 12 18.2531 12 18.5625V21.7031H17.2734V2.29688L3.75 2.25L3.72656 21.7031Z" fill="white"/>
</svg>
