<svg width="21" height="22" viewBox="0 0 21 22" fill="none" xmlns="http://www.w3.org/2000/svg">
<path d="M10.5047 5.60937C7.52341 5.60937 5.11873 8.01406 5.11873 10.9953C5.11873 13.9766 7.52341 16.3812 10.5047 16.3812C13.4859 16.3812 15.8906 13.9766 15.8906 10.9953C15.8906 8.01406 13.4859 5.60937 10.5047 5.60937ZM10.5047 14.4969C8.5781 14.4969 7.0031 12.9266 7.0031 10.9953C7.0031 9.06406 8.57341 7.49374 10.5047 7.49374C12.4359 7.49374 14.0062 9.06406 14.0062 10.9953C14.0062 12.9266 12.4312 14.4969 10.5047 14.4969ZM17.3672 5.38906C17.3672 6.08749 16.8047 6.64531 16.1109 6.64531C15.4125 6.64531 14.8547 6.08281 14.8547 5.38906C14.8547 4.69531 15.4172 4.13281 16.1109 4.13281C16.8047 4.13281 17.3672 4.69531 17.3672 5.38906ZM20.9344 6.66406C20.8547 4.98124 20.4703 3.49062 19.2375 2.26249C18.0094 1.03437 16.5187 0.649994 14.8359 0.565619C13.1015 0.467181 7.9031 0.467181 6.16873 0.565619C4.4906 0.645306 2.99998 1.02968 1.76716 2.25781C0.534351 3.48593 0.154663 4.97656 0.0702881 6.65937C-0.0281494 8.39374 -0.0281494 13.5922 0.0702881 15.3266C0.149976 17.0094 0.534351 18.5 1.76716 19.7281C2.99998 20.9562 4.48591 21.3406 6.16873 21.425C7.9031 21.5234 13.1015 21.5234 14.8359 21.425C16.5187 21.3453 18.0094 20.9609 19.2375 19.7281C20.4656 18.5 20.85 17.0094 20.9344 15.3266C21.0328 13.5922 21.0328 8.39843 20.9344 6.66406ZM18.6937 17.1875C18.3281 18.1062 17.6203 18.8141 16.6969 19.1844C15.314 19.7328 12.0328 19.6062 10.5047 19.6062C8.97654 19.6062 5.6906 19.7281 4.31248 19.1844C3.39373 18.8187 2.68591 18.1109 2.3156 17.1875C1.76716 15.8047 1.89373 12.5234 1.89373 10.9953C1.89373 9.46718 1.77185 6.18124 2.3156 4.80312C2.68123 3.88437 3.38904 3.17656 4.31248 2.80624C5.69529 2.25781 8.97654 2.38437 10.5047 2.38437C12.0328 2.38437 15.3187 2.26249 16.6969 2.80624C17.6156 3.17187 18.3234 3.87968 18.6937 4.80312C19.2422 6.18593 19.1156 9.46718 19.1156 10.9953C19.1156 12.5234 19.2422 15.8094 18.6937 17.1875Z" fill="#002D40"/>
</svg>
