<svg width="12" height="18" viewBox="0 0 12 18" fill="none" xmlns="http://www.w3.org/2000/svg">
<path d="M5.99999 0.666504C2.77499 0.666504 0.166656 3.27484 0.166656 6.49984C0.166656 10.8748 5.99999 17.3332 5.99999 17.3332C5.99999 17.3332 11.8333 10.8748 11.8333 6.49984C11.8333 3.27484 9.22499 0.666504 5.99999 0.666504ZM5.99999 8.58317C5.44746 8.58317 4.91755 8.36368 4.52685 7.97298C4.13615 7.58228 3.91666 7.05237 3.91666 6.49984C3.91666 5.9473 4.13615 5.4174 4.52685 5.0267C4.91755 4.636 5.44746 4.4165 5.99999 4.4165C6.55253 4.4165 7.08243 4.636 7.47313 5.0267C7.86383 5.4174 8.08332 5.9473 8.08332 6.49984C8.08332 7.05237 7.86383 7.58228 7.47313 7.97298C7.08243 8.36368 6.55253 8.58317 5.99999 8.58317Z" fill="#002D40"/>
</svg>
