<svg width="18" height="18" viewBox="0 0 18 18" fill="none" xmlns="http://www.w3.org/2000/svg">
<path d="M17.3458 0.864553L13.6895 0.0208025C13.2923 -0.0706037 12.8845 0.136818 12.7227 0.509474L11.0352 4.44697C10.8876 4.79151 10.986 5.1958 11.2778 5.43135L13.4083 7.1751C12.1427 9.87158 9.93134 12.1146 7.1786 13.4048L5.43485 11.2743C5.19579 10.9825 4.79501 10.8841 4.45048 11.0317L0.512976 12.7192C0.136804 12.8845 -0.0706177 13.2923 0.0207885 13.6896L0.864539 17.3458C0.952429 17.7255 1.28993 17.9997 1.68719 17.9997C10.6907 17.9997 17.9997 10.7048 17.9997 1.68721C17.9997 1.29346 17.729 0.952443 17.3458 0.864553Z" fill="#002D40"/>
</svg>
