<svg width="22" height="22" viewBox="0 0 22 22" fill="none" xmlns="http://www.w3.org/2000/svg">
<path fill-rule="evenodd" clip-rule="evenodd" d="M18.4405 3.55157C17.4697 2.58035 16.3165 1.81073 15.0471 1.28701C13.7777 0.763295 12.4172 0.495826 11.0441 0.500002C5.28125 0.500002 0.59 5.16782 0.587656 10.9063C0.585107 12.7335 1.06676 14.5288 1.98359 16.1094L0.5 21.5L6.04297 20.053C7.57729 20.8842 9.29484 21.3192 11.0398 21.3186H11.0441C16.8064 21.3186 21.4972 16.6503 21.5 10.9123C21.5035 9.54386 21.2348 8.18834 20.7095 6.92466C20.1843 5.66098 19.413 4.51438 18.4405 3.55157ZM11.0441 19.5622H11.0403C9.48471 19.5627 7.95739 19.1463 6.61719 18.3566L6.29984 18.1691L3.01062 19.0278L3.88859 15.8361L3.68187 15.508C2.81206 14.1309 2.35121 12.5351 2.35297 10.9063C2.35297 6.13766 6.25344 2.25782 11.0473 2.25782C13.347 2.25371 15.5542 3.16322 17.1833 4.78631C18.8125 6.4094 19.7302 8.61313 19.7347 10.9128C19.7328 15.6819 15.8342 19.5622 11.0441 19.5622ZM15.8108 13.0845C15.5497 12.9542 14.2639 12.3252 14.0258 12.2384C13.7877 12.1517 13.6119 12.1081 13.438 12.3688C13.2641 12.6294 12.763 13.2125 12.6106 13.3883C12.4583 13.5641 12.3059 13.5833 12.0448 13.453C11.7838 13.3227 10.9414 13.0484 9.94344 12.1625C9.16672 11.473 8.64266 10.6217 8.49031 10.3616C8.33797 10.1014 8.47391 9.96032 8.60469 9.83094C8.72234 9.71422 8.86578 9.52719 8.99656 9.37531C9.12734 9.22344 9.17094 9.11469 9.25766 8.94125C9.34437 8.76782 9.30125 8.61594 9.23609 8.4861C9.17094 8.35625 8.64828 7.0761 8.43078 6.55532C8.21844 6.04813 8.00328 6.11703 7.84297 6.10907C7.69062 6.10157 7.51484 6.09969 7.34188 6.09969C7.20965 6.10313 7.07955 6.1338 6.9597 6.18977C6.83985 6.24574 6.73283 6.32582 6.64531 6.425C6.40578 6.68563 5.73078 7.31563 5.73078 8.59438C5.73078 9.87313 6.66828 11.1106 6.79766 11.2841C6.92703 11.4575 8.63984 14.0839 11.2606 15.2103C11.7473 15.4187 12.2445 15.6015 12.7503 15.7578C13.3761 15.9556 13.9456 15.928 14.3956 15.8609C14.8977 15.7864 15.9425 15.2319 16.1595 14.6244C16.3766 14.0169 16.377 13.4966 16.3119 13.3883C16.2467 13.28 16.0723 13.2144 15.8108 13.0845Z" fill="#002D40"/>
</svg>
